<svg width="24" height="24" viewBox="0 0 24 24" fill="none" xmlns="http://www.w3.org/2000/svg">
<path d="M21.0002 19L15.8462 13.846C16.799 12.3979 17.1807 10.6477 16.9172 8.93442C16.6538 7.22111 15.764 5.66648 14.4201 4.57154C13.0762 3.47659 11.3739 2.91923 9.64269 3.00735C7.91148 3.09547 6.27453 3.82281 5.04879 5.04855C3.82305 6.27429 3.09571 7.91123 3.00759 9.64245C2.91947 11.3737 3.47684 13.076 4.57178 14.4199C5.66672 15.7637 7.22135 16.6535 8.93467 16.917C10.648 17.1804 12.3981 16.7988 13.8462 15.846L19.0002 21L21.0002 19ZM5.00022 9.99998C5.00022 7.24298 7.24322 4.99998 10.0002 4.99998C12.7572 4.99998 15.0002 7.24298 15.0002 9.99998C15.0002 12.757 12.7572 15 10.0002 15C7.24322 15 5.00022 12.757 5.00022 9.99998Z" fill="white"/>
</svg>
