<svg width="16" height="16" viewBox="0 0 16 16" fill="none" xmlns="http://www.w3.org/2000/svg">
<path d="M5.70909 1.63C5.70909 1.41333 5.73109 1.28333 6.10242 1.28333H11.0791C11.9458 1.28333 12.4258 2.02333 12.7724 3.412L13.0524 4.52267H13.8991C14.0524 1.37067 14.1858 0 14.1858 0C14.1858 0 12.0551 0.24 10.7924 0.24H4.42642L1.01709 0.130667V1.044L2.16709 1.26133C2.97376 1.42133 3.16709 1.592 3.23376 2.332C3.23376 2.332 3.30709 4.512 3.30709 8.092C3.30709 11.682 3.24709 13.832 3.24709 13.832C3.24709 14.4807 2.98709 14.7207 2.18709 14.8807L1.03909 15.1007V16L4.45909 15.89H10.1591C11.4491 15.89 14.4191 16 14.4191 16C14.4891 15.22 14.9191 11.68 14.9891 11.2907H14.1891L13.3331 13.2307C12.6631 14.7507 11.6824 14.8607 10.5931 14.8607H7.32242C6.23576 14.8607 5.71242 14.434 5.71242 13.494V8.53333C5.71242 8.53333 8.12576 8.53333 8.90576 8.59733C9.51376 8.64 9.88109 8.814 10.0791 9.66267L10.3391 10.7927H11.2791L11.2191 7.94067L11.3471 5.07067H10.4198L10.1198 6.33067C9.93109 7.16 9.79976 7.31067 8.95042 7.39733C7.83976 7.51067 5.74042 7.49067 5.74042 7.49067V1.63333H5.70709L5.70909 1.63Z" fill="#333333"/>
</svg>
