<svg width="218" height="53" viewBox="0 0 218 53" fill="none" xmlns="http://www.w3.org/2000/svg">
<path d="M45.4247 44.712C40.3847 49.752 34.2167 52.272 26.9207 52.272C19.6247 52.272 13.4327 49.752 8.34467 44.712C3.30467 39.624 0.784668 33.432 0.784668 26.136C0.784668 18.84 3.30467 12.672 8.34467 7.632C13.4327 2.544 19.6247 0 26.9207 0C34.2167 0 40.3847 2.544 45.4247 7.632C50.5127 12.672 53.0567 18.84 53.0567 26.136C53.0567 33.432 50.5127 39.624 45.4247 44.712ZM14.1767 39.096C17.6327 42.504 21.8807 44.208 26.9207 44.208C31.9607 44.208 36.1847 42.504 39.5927 39.096C43.0487 35.64 44.7767 31.32 44.7767 26.136C44.7767 20.952 43.0487 16.656 39.5927 13.248C36.1847 9.792 31.9607 8.064 26.9207 8.064C21.8807 8.064 17.6327 9.792 14.1767 13.248C10.7687 16.656 9.06467 20.952 9.06467 26.136C9.06467 31.32 10.7687 35.64 14.1767 39.096Z" fill="white"/>
<path d="M81.1519 52.272C73.3279 52.272 67.9279 49.2 64.9519 43.056L72.0799 38.88C73.7119 42.432 76.7599 44.208 81.2239 44.208C84.1039 44.208 86.3119 43.512 87.8479 42.12C89.4319 40.68 90.2239 38.664 90.2239 36.072V0.936001H98.5039V36.072C98.5039 41.256 96.8719 45.264 93.6079 48.096C90.3439 50.88 86.1919 52.272 81.1519 52.272Z" fill="white"/>
<path d="M129.71 52.272C121.886 52.272 116.486 49.2 113.51 43.056L120.638 38.88C122.27 42.432 125.318 44.208 129.782 44.208C132.662 44.208 134.87 43.512 136.406 42.12C137.99 40.68 138.782 38.664 138.782 36.072V0.936001H147.062V36.072C147.062 41.256 145.43 45.264 142.166 48.096C138.902 50.88 134.75 52.272 129.71 52.272Z" fill="white"/>
<path d="M209.59 44.712C204.55 49.752 198.382 52.272 191.086 52.272C183.79 52.272 177.598 49.752 172.51 44.712C167.47 39.624 164.95 33.432 164.95 26.136C164.95 18.84 167.47 12.672 172.51 7.632C177.598 2.544 183.79 0 191.086 0C198.382 0 204.55 2.544 209.59 7.632C214.678 12.672 217.222 18.84 217.222 26.136C217.222 33.432 214.678 39.624 209.59 44.712ZM178.342 39.096C181.798 42.504 186.046 44.208 191.086 44.208C196.126 44.208 200.35 42.504 203.758 39.096C207.214 35.64 208.942 31.32 208.942 26.136C208.942 20.952 207.214 16.656 203.758 13.248C200.35 9.792 196.126 8.064 191.086 8.064C186.046 8.064 181.798 9.792 178.342 13.248C174.934 16.656 173.23 20.952 173.23 26.136C173.23 31.32 174.934 35.64 178.342 39.096Z" fill="white"/>
</svg>
